<?xml version="1.0" standalone="no"?>
<!DOCTYPE svg PUBLIC "-//W3C//DTD SVG 20010904//EN"
 "http://www.w3.org/TR/2001/REC-SVG-20010904/DTD/svg10.dtd">
<svg version="1.0" xmlns="http://www.w3.org/2000/svg"
 width="512.000000pt" height="512.000000pt" viewBox="0 0 512.000000 512.000000"
 preserveAspectRatio="xMidYMid meet">

<g transform="translate(0.000000,512.000000) scale(0.100000,-0.100000)"
fill="#000000" stroke="none">
<path d="M2215 5095 c-189 -21 -310 -43 -452 -81 -196 -52 -285 -80 -333 -104
-35 -18 -66 -23 -159 -27 -148 -6 -282 19 -413 76 -90 40 -120 46 -82 16 10
-9 77 -44 148 -80 115 -58 125 -65 100 -70 -116 -25 -294 -107 -396 -183 -77
-57 -178 -152 -178 -167 0 -8 33 7 80 35 85 51 228 115 237 106 3 -3 -1 -8
-10 -12 -25 -9 -98 -75 -302 -274 -104 -102 -228 -219 -275 -260 -133 -115
-118 -114 77 6 58 36 107 63 109 61 3 -2 -6 -17 -19 -33 -57 -68 -216 -347
-189 -330 6 3 1 -22 -9 -56 -53 -169 -77 -343 -99 -725 -6 -101 -15 -205 -19
-233 -14 -88 5 -54 29 53 32 142 89 319 100 312 6 -4 10 12 10 37 0 24 4 48 8
54 4 7 8 -43 9 -110 1 -66 8 -155 16 -196 25 -126 92 -380 100 -380 4 0 7 25
7 56 0 61 27 194 39 194 5 0 14 -39 20 -87 7 -49 19 -101 26 -118 l13 -30 1
41 c1 23 4 56 7 73 6 30 8 29 38 -42 42 -95 96 -184 136 -222 l32 -30 -7 50
c-4 28 -9 69 -11 92 -1 23 -5 48 -9 55 -9 17 26 -22 100 -112 85 -103 268
-257 295 -248 6 2 -6 29 -25 61 -43 71 -29 64 73 -36 44 -42 84 -77 90 -77 14
0 40 -118 56 -260 7 -64 20 -129 29 -145 19 -37 87 -109 147 -157 77 -62 340
-219 460 -276 178 -84 274 -112 381 -112 76 0 89 -2 89 -17 0 -9 -8 -26 -17
-37 -17 -20 -17 -20 0 -7 9 8 19 12 21 10 3 -2 7 -29 10 -59 4 -30 10 -80 15
-110 5 -30 7 -58 5 -62 -3 -4 -31 -6 -64 -5 -33 1 -60 -1 -60 -5 0 -8 14 -9
103 -11 39 0 172 11 207 18 41 9 388 118 425 135 11 5 79 32 150 60 142 56
256 114 324 166 24 19 48 31 52 28 5 -3 8 -2 7 3 -1 4 13 24 32 44 19 20 56
61 82 92 54 63 55 87 4 86 l-31 -1 28 -10 c15 -5 27 -15 27 -20 0 -17 -183
-189 -191 -180 -4 4 -10 25 -12 47 -3 22 -8 47 -11 55 -3 8 -7 29 -10 45 -3
17 -17 92 -32 167 l-27 137 43 56 c23 30 41 58 38 60 -3 3 -18 -13 -33 -35
-15 -22 -30 -38 -32 -36 -8 7 58 85 70 83 5 -1 11 3 14 10 2 6 -3 10 -11 9 -8
-1 -56 -51 -106 -112 -138 -166 -240 -264 -330 -318 -148 -88 -395 -194 -537
-231 -39 -10 -107 -15 -211 -15 -150 0 -157 1 -261 36 -189 63 -396 178 -561
311 -97 79 -188 174 -194 204 -5 27 -22 143 -36 240 -11 82 -29 126 -129 328
l-81 162 0 140 0 139 49 0 c47 0 50 -2 61 -32 6 -18 28 -62 49 -98 38 -63 42
-80 18 -80 -7 0 -6 4 3 10 9 6 10 10 3 10 -17 0 -25 -17 -13 -25 8 -5 6 -13
-6 -26 -9 -10 -18 -29 -19 -41 -2 -13 -6 -35 -10 -49 -5 -19 -2 -28 9 -32 10
-4 16 -19 17 -39 1 -32 1 -32 10 8 9 40 59 99 89 106 8 2 21 11 28 21 7 9 16
17 20 17 4 0 7 -46 7 -103 0 -94 2 -106 30 -155 57 -104 98 -119 217 -82 60
18 67 23 91 69 34 62 34 70 -3 77 -16 4 -35 13 -41 20 -15 19 -4 44 20 44 57
0 65 29 27 103 -26 53 -23 60 12 20 13 -16 20 -22 16 -14 -5 11 -3 13 9 8 23
-9 21 6 -3 28 -22 20 -18 37 8 29 29 -10 -29 34 -78 58 -39 20 -60 23 -150 22
-58 0 -125 -6 -149 -13 -23 -7 -44 -11 -46 -9 -2 2 -7 36 -11 76 l-7 73 34 -3
c31 -3 35 -7 47 -50 18 -65 35 -62 26 3 l-7 52 89 -7 c155 -12 149 -9 209 -98
29 -44 55 -76 58 -71 2 4 -17 68 -45 142 -27 73 -47 135 -45 137 2 2 22 -22
44 -54 110 -156 294 -311 427 -362 23 -9 24 -8 15 23 -9 30 -59 310 -59 332 0
5 27 -36 59 -93 65 -112 139 -220 167 -243 13 -10 12 -6 -4 16 -55 76 -125
367 -162 669 -36 293 -42 284 54 91 46 -93 108 -205 136 -248 29 -43 50 -80
49 -81 -2 -2 -29 -12 -59 -24 -87 -32 -110 -44 -110 -59 0 -19 53 -17 145 6
l78 20 46 -51 c44 -50 60 -81 38 -73 -7 3 -25 -7 -42 -20 -28 -23 -29 -24 -5
-18 24 6 24 6 8 -14 -20 -22 -41 -113 -26 -113 4 0 13 11 18 25 5 14 12 25 14
25 3 0 2 -8 -1 -17 -4 -10 10 -1 30 19 53 54 200 94 182 51 -55 -133 -44 -236
34 -325 28 -32 30 -37 14 -42 -40 -12 157 4 227 19 151 31 174 41 193 80 l17
35 -31 15 c-46 24 -37 57 19 69 46 11 49 19 28 71 -19 44 -9 44 34 0 18 -19
35 -33 38 -31 2 2 -6 22 -17 44 -11 22 -17 43 -13 47 4 5 3 6 -3 3 -5 -3 -20
8 -33 23 -19 23 -20 28 -6 22 12 -4 15 -3 10 5 -14 23 -157 58 -325 80 -53 7
-54 8 -87 67 -19 33 -34 63 -34 67 0 9 56 25 137 39 l62 11 101 -91 c55 -50
127 -110 158 -134 73 -55 262 -178 262 -170 0 3 -14 30 -32 61 -31 55 -28 57
27 16 33 -24 195 -107 200 -102 1 2 -10 55 -25 118 -16 63 -28 116 -27 117 1
1 36 -36 77 -82 41 -45 76 -77 78 -70 1 6 -6 33 -18 60 -11 26 -19 49 -17 51
2 2 21 -8 43 -24 21 -15 59 -36 84 -45 46 -18 100 -75 100 -107 0 -9 -9 -43
-20 -75 -23 -67 -23 -65 -11 -65 10 0 41 106 41 142 0 14 -9 33 -20 43 -28 25
-25 37 6 29 22 -6 25 -4 21 12 -3 11 -8 45 -12 77 l-6 57 36 0 c46 0 55 -22
55 -142 0 -168 -24 -254 -92 -330 -52 -57 -299 -269 -308 -263 -13 8 -159
-105 -175 -135 -19 -36 -19 -37 1 -37 9 0 22 14 29 31 14 34 85 96 109 96 29
0 345 274 389 337 34 49 55 134 64 252 l6 96 95 165 c53 91 109 189 125 219
l30 54 19 -27 c11 -14 23 -26 27 -26 7 0 -8 135 -28 243 -4 26 -7 47 -5 47 6
0 112 -186 128 -225 23 -55 36 -32 36 68 0 92 -20 199 -55 287 -14 35 -25 66
-25 68 0 5 143 -121 212 -187 32 -30 60 -52 64 -48 17 16 -87 184 -227 370
l-22 29 30 -16 c17 -8 52 -31 77 -51 91 -69 68 -28 -42 74 -146 136 -208 211
-402 486 -195 276 -240 333 -362 451 -170 166 -256 217 -490 293 -234 76 -344
93 -633 97 -158 2 -281 -2 -360 -11z m-1895 -1097 c-54 -116 -106 -252 -146
-384 -21 -71 -27 -111 -28 -196 -1 -108 -11 -127 -26 -46 -20 102 46 356 145
567 40 83 88 161 100 161 2 0 -18 -46 -45 -102z m46 -19 c-26 -60 -60 -169
-82 -264 l-14 -60 4 66 c4 71 52 231 87 288 30 49 33 32 5 -30z m52 -121 c-11
-28 -25 -79 -33 -112 l-13 -61 -1 47 c-1 30 9 72 25 113 31 77 51 89 22 13z
m-55 -28 c-14 -36 -28 -87 -31 -113 -3 -32 -8 -45 -15 -38 -15 15 1 91 34 161
38 81 46 74 12 -10z m87 1 c-11 -33 -20 -75 -20 -93 -1 -28 -2 -30 -11 -15
-13 22 -5 71 22 134 28 65 34 47 9 -26z m138 -7 c-30 -101 -39 -118 -34 -62 5
40 44 143 53 135 1 -2 -7 -34 -19 -73z m-98 6 c-11 -30 -19 -72 -20 -93 0 -26
-4 -36 -11 -31 -16 10 -6 80 20 138 28 64 35 56 11 -14z m50 24 c-7 -16 -18
-56 -25 -89 l-14 -60 3 55 c1 30 10 73 20 94 19 44 32 44 16 0z m86 -39 c-15
-52 -22 -67 -24 -50 -4 28 25 125 37 125 4 0 -2 -34 -13 -75z m64 56 c-5 -11
-14 -37 -19 -58 l-9 -38 -1 32 c-1 35 17 83 31 83 5 0 4 -9 -2 -19z m21 -51
c-16 -45 -20 -50 -20 -27 -1 30 30 108 36 91 2 -5 -5 -34 -16 -64z m42 6 c-4
-25 -9 -34 -16 -27 -7 7 -6 20 3 41 16 39 21 34 13 -14z m44 -2 c-6 -20 -13
-31 -15 -25 -6 17 7 61 17 61 5 0 4 -16 -2 -36z m39 -5 c-9 -22 -15 -27 -15
-16 -1 21 18 61 25 54 3 -3 -2 -20 -10 -38z m574 -534 c15 -110 63 -290 99
-377 17 -39 30 -73 28 -74 -1 -1 -31 4 -67 12 -36 7 -82 14 -102 14 l-38 0 0
123 c0 134 11 275 37 497 l18 145 7 -130 c3 -71 12 -166 18 -210z m981 -66
c32 -48 79 -113 104 -143 25 -31 45 -57 45 -59 0 -10 -122 -29 -130 -21 -22
24 -181 456 -180 492 0 4 23 -35 51 -87 28 -52 77 -133 110 -182z m298 28 c42
-49 93 -108 113 -131 l37 -43 -67 -12 c-37 -7 -77 -15 -88 -17 -20 -5 -27 7
-74 128 -46 117 -110 294 -110 306 0 2 25 -29 57 -69 31 -41 90 -114 132 -162z
m-1654 -358 c18 -53 13 -68 -22 -69 -6 0 -18 -3 -27 -6 -14 -5 -16 5 -16 78 0
47 3 121 7 164 l7 79 17 -97 c9 -53 25 -120 34 -149z m237 6 c2 -25 -1 -31
-19 -33 -22 -3 -23 -1 -23 76 0 44 3 101 7 128 7 48 7 48 19 -46 7 -52 14
-108 16 -125z m1391 -1 c31 -31 57 -57 57 -58 0 -2 -33 -6 -72 -9 -40 -4 -90
-10 -110 -13 -36 -6 -37 -6 -63 46 -14 29 -25 53 -23 55 5 4 122 33 138 34 8
0 41 -24 73 -55z m51 -434 c14 -21 44 -50 66 -62 39 -23 51 -38 29 -38 -37 0
-129 91 -129 127 0 20 5 16 34 -27z m339 14 c7 -8 -23 -64 -35 -64 -4 0 -10 5
-13 10 -3 6 0 10 8 10 9 0 13 9 12 25 -3 23 13 34 28 19z m-1627 -191 c48 -39
38 -56 -11 -19 -46 35 -65 65 -71 112 l-6 39 25 -50 c13 -28 42 -65 63 -82z
m164 47 c0 -5 -4 -10 -8 -10 -4 0 -8 -10 -9 -21 -2 -24 -10 -35 -19 -26 -11
11 7 67 22 67 8 0 14 -4 14 -10z m1721 -558 c-17 -22 -38 -45 -48 -53 -10 -8
2 10 26 39 49 60 68 71 22 14z m43 -307 c9 -44 23 -101 31 -127 l14 -47 -66
-42 c-36 -22 -96 -54 -132 -71 -59 -26 -238 -98 -246 -98 -2 0 19 33 45 73 57
86 127 212 205 368 32 63 69 134 84 159 l26 45 11 -90 c6 -49 19 -126 28 -170z"/>
<path d="M136 3745 c-9 -26 -7 -32 5 -12 6 10 9 21 6 23 -2 3 -7 -2 -11 -11z"/>
<path d="M56 3524 c-4 -14 -5 -28 -3 -31 3 -2 8 8 11 23 4 14 5 28 3 31 -3 2
-8 -8 -11 -23z"/>
<path d="M31 3414 c0 -11 3 -14 6 -6 3 7 2 16 -1 19 -3 4 -6 -2 -5 -13z"/>
<path d="M21 3364 c0 -11 3 -14 6 -6 3 7 2 16 -1 19 -3 4 -6 -2 -5 -13z"/>
<path d="M154 2945 c0 -82 2 -115 3 -72 2 43 2 110 0 150 -1 40 -3 5 -3 -78z"/>
<path d="M2342 2810 c-23 -17 -42 -33 -42 -36 0 -4 56 34 85 58 23 20 -6 5
-43 -22z"/>
<path d="M162 2760 c0 -14 2 -19 5 -12 2 6 2 18 0 25 -3 6 -5 1 -5 -13z"/>
<path d="M2339 2763 c-13 -16 -12 -17 4 -4 16 13 21 21 13 21 -2 0 -10 -8 -17
-17z"/>
<path d="M171 2704 c0 -11 3 -14 6 -6 3 7 2 16 -1 19 -3 4 -6 -2 -5 -13z"/>
<path d="M422 2610 c0 -14 2 -19 5 -12 2 6 2 18 0 25 -3 6 -5 1 -5 -13z"/>
<path d="M3612 2524 l-53 -106 25 -32 25 -33 -30 -58 c-33 -65 -35 -83 -15
-111 13 -17 14 -15 9 23 -4 33 0 51 21 89 31 56 32 66 6 89 -26 23 -25 32 5
102 l25 58 45 -3 c39 -4 46 -7 51 -31 3 -14 10 -39 14 -56 l8 -30 1 37 c1 20
-4 49 -11 63 -9 21 -18 25 -55 25 -23 0 -43 2 -43 5 0 4 7 20 16 36 8 17 14
33 12 35 -2 2 -27 -44 -56 -102z"/>
<path d="M1720 2548 c19 -26 36 -46 38 -43 5 5 -32 57 -54 76 -9 8 -2 -7 16
-33z"/>
<path d="M431 2564 c0 -11 3 -14 6 -6 3 7 2 16 -1 19 -3 4 -6 -2 -5 -13z"/>
<path d="M441 2524 c0 -11 3 -14 6 -6 3 7 2 16 -1 19 -3 4 -6 -2 -5 -13z"/>
<path d="M610 2514 c0 -6 7 -19 16 -30 14 -18 14 -18 3 6 -14 31 -19 36 -19
24z"/>
<path d="M3610 2224 l-25 -15 25 7 c14 3 32 10 40 15 13 7 13 8 0 8 -8 0 -26
-6 -40 -15z"/>
<path d="M1313 2193 c9 -2 23 -2 30 0 6 3 -1 5 -18 5 -16 0 -22 -2 -12 -5z"/>
<path d="M1644 2006 c-6 -17 22 -76 36 -76 6 0 10 6 10 14 0 7 2 29 5 47 5 32
4 31 -8 -6 -13 -39 -13 -40 -26 -17 -7 13 -10 30 -7 38 3 8 3 14 0 14 -2 0 -7
-6 -10 -14z"/>
<path d="M2090 1660 c-32 -5 -16 -7 56 -6 56 0 100 4 97 9 -5 8 -90 7 -153 -3z"/>
<path d="M3413 1574 c3 -3 60 -7 127 -9 87 -2 126 -7 135 -16 12 -13 89 -217
113 -299 l10 -35 1 45 c0 32 -15 82 -53 175 -48 119 -55 131 -82 136 -38 9
-259 11 -251 3z"/>
<path d="M3812 1393 c31 -4 47 -16 102 -77 70 -79 62 -75 216 -101 133 -23
219 -54 284 -101 71 -52 106 -60 189 -44 35 7 79 10 98 6 50 -9 189 -97 262
-166 47 -44 73 -60 102 -65 30 -5 36 -4 25 4 -8 6 -21 11 -28 11 -8 0 -42 24
-75 53 -76 66 -173 132 -234 159 -40 18 -58 19 -152 13 l-106 -7 -60 44 c-66
48 -174 89 -290 108 -164 27 -151 21 -223 98 -63 67 -70 72 -107 70 l-40 -1
37 -4z"/>
<path d="M3775 1194 c-20 -63 -261 -525 -270 -517 -4 5 -5 2 -1 -4 4 -7 1 -23
-6 -35 -6 -13 -13 -27 -14 -33 -5 -25 -32 -64 -39 -57 -5 4 -5 1 -1 -5 4 -7
-3 -34 -15 -60 -12 -27 -23 -52 -24 -58 -2 -5 -42 -101 -90 -213 -48 -112 -84
-206 -81 -209 2 -3 11 10 19 28 171 404 245 568 379 841 89 181 158 331 155
334 -4 4 -9 -2 -12 -12z"/>
<path d="M2141 1030 c-55 -55 -101 -108 -101 -117 1 -13 6 -10 22 12 12 17 60
69 107 118 46 48 82 87 79 87 -3 0 -51 -45 -107 -100z"/>
<path d="M2143 954 c-3 -8 -2 -19 3 -24 5 -5 9 1 9 16 0 28 -3 30 -12 8z"/>
<path d="M4640 815 c47 -47 87 -85 90 -85 2 0 -33 38 -80 85 -47 47 -87 85
-90 85 -2 0 33 -38 80 -85z"/>
<path d="M4802 881 c12 -20 5 -62 -26 -156 -3 -11 4 0 16 25 25 52 31 140 10
148 -11 3 -11 1 0 -17z"/>
<path d="M2050 888 c0 -32 189 -450 209 -462 5 -3 -17 -86 -49 -183 -31 -98
-60 -193 -63 -210 -8 -40 10 -45 19 -5 3 15 8 34 11 42 4 8 6 18 5 21 -1 7 42
148 55 179 3 8 6 18 5 21 -1 4 9 39 22 78 20 61 21 71 8 69 -10 -2 -18 5 -20
17 -3 20 -37 107 -53 135 -19 35 -73 150 -101 215 -27 63 -48 99 -48 83z"/>
<path d="M4353 763 c9 -2 25 -2 35 0 9 3 1 5 -18 5 -19 0 -27 -2 -17 -5z"/>
<path d="M1968 698 c-35 -35 -84 -97 -108 -138 -44 -72 -47 -75 -120 -105 -87
-36 -168 -86 -260 -160 l-66 -52 -69 14 c-88 19 -174 12 -214 -16 -33 -24 -66
-86 -87 -164 -16 -61 -17 -77 -5 -77 5 0 15 24 21 53 20 81 55 154 86 174 22
14 47 18 114 17 47 0 98 -4 114 -8 l29 -7 -34 -36 c-30 -31 -31 -34 -9 -23 14
7 51 37 84 67 80 74 188 150 263 184 75 35 76 35 63 7 -9 -21 -9 -21 2 -4 7
10 23 28 36 40 13 12 44 56 70 99 25 43 73 105 106 137 34 33 58 60 54 60 -3
0 -35 -28 -70 -62z"/>
<path d="M4435 740 c10 -11 20 -20 23 -20 3 0 -3 9 -13 20 -10 11 -20 20 -23
20 -3 0 3 -9 13 -20z"/>
<path d="M3495 713 l-18 -28 27 24 c28 26 31 31 17 31 -5 0 -17 -12 -26 -27z"/>
<path d="M4471 690 c14 -31 19 -36 19 -24 0 6 -7 19 -16 30 -14 18 -14 18 -3
-6z"/>
<path d="M4492 630 c0 -14 2 -19 5 -12 2 6 2 18 0 25 -3 6 -5 1 -5 -13z"/>
<path d="M5052 624 c-18 -14 -77 -83 -131 -152 -54 -70 -174 -205 -267 -301
-93 -96 -164 -172 -158 -170 24 9 347 353 436 465 53 66 113 131 132 145 34
22 46 39 29 39 -5 0 -23 -12 -41 -26z"/>
<path d="M3796 595 c-9 -26 -7 -32 5 -12 6 10 9 21 6 23 -2 3 -7 -2 -11 -11z"/>
<path d="M4491 584 c0 -11 3 -14 6 -6 3 7 2 16 -1 19 -3 4 -6 -2 -5 -13z"/>
<path d="M2042 555 c0 -16 2 -22 5 -12 2 9 2 23 0 30 -3 6 -5 -1 -5 -18z"/>
<path d="M3249 523 c-13 -16 -12 -17 4 -4 16 13 21 21 13 21 -2 0 -10 -8 -17
-17z"/>
<path d="M3770 475 c-17 -25 -29 -45 -26 -45 3 0 19 20 36 45 17 25 29 45 26
45 -3 0 -19 -20 -36 -45z"/>
<path d="M4415 469 c-27 -22 -94 -67 -147 -100 -54 -33 -98 -63 -98 -66 0 -12
258 157 284 186 27 30 18 25 -39 -20z"/>
<path d="M2033 440 c0 -25 2 -35 4 -22 2 12 2 32 0 45 -2 12 -4 2 -4 -23z"/>
<path d="M3059 403 c-13 -17 -13 -17 6 -3 11 8 22 16 24 17 2 2 0 3 -6 3 -6 0
-17 -8 -24 -17z"/>
<path d="M1712 328 c-103 -190 -173 -328 -165 -328 8 0 217 400 209 400 -2 0
-22 -33 -44 -72z"/>
<path d="M5060 323 c-30 -36 -105 -123 -167 -192 -61 -69 -107 -128 -100 -130
6 -2 30 18 54 45 181 204 274 316 271 329 -2 9 -24 -11 -58 -52z"/>
<path d="M2980 370 c-8 -5 -10 -10 -5 -10 6 0 17 5 25 10 8 5 11 10 5 10 -5 0
-17 -5 -25 -10z"/>
<path d="M2017 263 c-9 -142 -9 -263 1 -263 4 0 8 83 9 185 2 102 1 185 -1
185 -1 0 -6 -48 -9 -107z"/>
<path d="M4022 211 c-128 -87 -272 -197 -272 -207 0 -3 31 20 69 50 38 31 127
94 198 142 130 88 151 104 142 104 -3 0 -65 -40 -137 -89z"/>
<path d="M3582 198 c-55 -83 -70 -108 -55 -93 16 16 114 165 109 165 -3 0 -27
-33 -54 -72z"/>
<path d="M2395 90 c10 -11 20 -20 23 -20 3 0 -3 9 -13 20 -10 11 -20 20 -23
20 -3 0 3 -9 13 -20z"/>
<path d="M3475 34 c-9 -14 -15 -27 -13 -30 2 -2 12 10 22 26 21 37 15 40 -9 4z"/>
<path d="M4335 19 c-27 -10 -37 -17 -21 -14 31 7 97 33 81 33 -5 0 -32 -8 -60
-19z"/>
</g>
</svg>
