<?xml version="1.0" encoding="UTF-8"?>
<svg xmlns="http://www.w3.org/2000/svg" xmlns:xlink="http://www.w3.org/1999/xlink" width="192px" height="192px" viewBox="0 0 192 192" version="1.1">
<g id="surface1">
<path style=" stroke:none;fill-rule:evenodd;fill:rgb(0%,0%,0%);fill-opacity:1;" d="M 42 120 C 38.671875 120 36 117.328125 36 114 L 36 18 C 36 14.671875 38.671875 12 42 12 L 150 12 C 153.328125 12 156 14.671875 156 18 L 156 114 C 156 117.328125 153.328125 120 150 120 L 126 120 C 122.671875 120 120 122.671875 120 126 C 120 129.328125 122.671875 132 126 132 L 150 132 C 159.9375 132 168 123.9375 168 114 L 168 18 C 168 8.0625 159.9375 0 150 0 L 42 0 C 32.0625 0 24 8.0625 24 18 L 24 114 C 24 123.9375 32.0625 132 42 132 L 66 132 C 69.328125 132 72 129.328125 72 126 C 72 122.671875 69.328125 120 66 120 Z M 42 120 "/>
<path style=" stroke:none;fill-rule:evenodd;fill:rgb(0%,0%,0%);fill-opacity:1;" d="M 91.734375 190.265625 C 92.859375 191.390625 94.40625 192 96 192 C 97.59375 192 99.140625 191.390625 100.265625 190.265625 L 136.265625 154.265625 C 138.609375 151.921875 138.609375 148.078125 136.265625 145.734375 C 133.921875 143.390625 130.078125 143.390625 127.734375 145.734375 L 102 171.515625 L 102 66 C 102 62.671875 99.328125 60 96 60 C 92.671875 60 90 62.671875 90 66 L 90 171.515625 L 64.265625 145.734375 C 61.921875 143.390625 58.078125 143.390625 55.734375 145.734375 C 53.390625 148.078125 53.390625 151.921875 55.734375 154.265625 Z M 91.734375 190.265625 "/>
</g>
</svg>
